<svg width="66" height="92" viewBox="0 0 66 92" fill="none" xmlns="http://www.w3.org/2000/svg">
<g clip-path="url(#clip0_4_10)">
<path d="M41.3573 96.1637H18.027C18.027 86.4723 18.0226 76.7788 18.0444 67.0875C18.0444 66.4869 17.8116 66.3503 17.3004 66.3872C16.9588 66.4132 16.6347 66.5195 16.2844 66.5129C14.6919 66.4891 14.7028 66.4999 14.7159 64.9021C14.7267 63.4061 14.7202 61.9079 14.7006 60.412C14.6984 60.1626 14.792 59.7767 14.3373 59.7875C13.3257 59.8136 12.3119 59.7138 11.3025 59.8287L11.3068 59.8352C11.3307 58.6493 11.3699 57.4655 11.3721 56.2796C11.3786 53.1662 11.3677 50.0528 11.359 46.9395C11.359 46.6706 11.3677 46.4972 11.7441 46.5037C13.6738 46.5362 15.6035 46.521 17.5331 46.5514C17.9508 46.5579 18.0618 46.404 18.0531 46.0224C18.0292 45.0727 18.0313 44.1231 18.0226 43.1735C18.2859 43.2711 18.5513 43.3188 18.8363 43.3101C19.6673 43.2841 20.5027 43.3405 21.3273 43.1822L21.3164 43.1713C21.3186 44.121 21.3425 45.0727 21.3164 46.0224C21.3033 46.5037 21.4991 46.5796 21.9364 46.5752C24.8255 46.5449 27.7168 46.5449 30.6059 46.5384C30.7473 46.5384 30.8908 46.5601 31.0323 46.5644C31.2433 46.5709 31.3586 46.6273 31.3521 46.8831C31.3259 47.7135 31.3716 48.546 31.2998 49.3721C31.2629 49.7905 31.3999 49.8664 31.7458 49.8642C32.5595 49.8555 33.3731 49.8512 34.1889 49.8512C37.4653 49.8512 40.7416 49.8512 44.0201 49.8577C44.4552 49.8577 44.6945 49.758 44.6662 49.2441C44.6249 48.4983 44.6423 47.746 44.6662 46.998C44.6771 46.6381 44.5683 46.4972 44.1854 46.4972C40.0759 46.5037 35.9663 46.4863 31.8568 46.5015C31.426 46.5015 31.3412 46.3498 31.3455 45.9768C31.3564 44.2554 31.3521 42.5339 31.3499 40.8125C31.3499 39.8997 31.3455 39.9019 32.2527 39.9019C38.2767 39.9019 44.3007 39.9062 50.3248 39.9019C51.232 39.9019 51.2276 39.8889 51.2559 40.7648C51.2646 41.0054 51.3255 41.2461 51.3255 41.4867C51.3342 46.4668 51.406 51.4491 51.2559 56.4292C50.4031 56.4314 49.5459 56.4986 48.7018 56.4162C48.0644 56.3533 47.9534 56.5701 47.96 57.1338C47.9839 59.1263 47.9622 61.1209 47.96 63.1134C47.0484 63.0982 46.1391 63.0895 45.2275 63.0679C44.8359 63.0592 44.6336 63.1763 44.6488 63.6207C44.6771 64.5465 44.6575 65.4744 44.6575 66.4002L44.6684 66.385C43.7438 66.3829 42.817 66.3894 41.8924 66.372C41.4922 66.3634 41.3051 66.4674 41.3072 66.9184C41.3246 71.1462 41.3225 75.3717 41.329 79.5995C41.3377 85.1216 41.3486 90.6416 41.3573 96.1637Z" fill="#EEA978"/>
<path d="M11.3002 59.8307C12.3097 59.7158 13.3235 59.8156 14.3351 59.7896C14.7898 59.7787 14.6962 60.1625 14.6984 60.414C14.7158 61.9099 14.7245 63.4081 14.7136 64.9041C14.7027 66.5019 14.6919 66.4911 16.2822 66.515C16.6346 66.5193 16.9588 66.4131 17.2981 66.3892C17.8094 66.3502 18.0443 66.4889 18.0422 67.0895C18.0204 76.7808 18.0248 86.4744 18.0248 96.1657H14.7267C14.7158 86.4332 14.7049 76.6984 14.694 66.9659C14.6919 66.9095 14.6875 66.851 14.6853 66.7925C14.6919 66.6776 14.7397 66.5496 14.5831 66.4889L14.557 66.4477L14.5156 66.4738C13.6889 66.3849 12.8557 66.3827 12.0334 66.4651C11.459 66.5236 11.3307 66.309 11.3329 65.806C11.3459 64.0152 11.3372 62.2221 11.3329 60.4291C11.3329 60.2297 11.3068 60.028 11.2937 59.8286L11.3002 59.8307Z" fill="#330920"/>
<path d="M41.3572 96.1634C41.3485 90.6413 41.3355 85.1213 41.3289 79.5992C41.3224 75.3715 41.3268 71.1459 41.3072 66.9181C41.3072 66.4693 41.4899 66.3652 41.8924 66.3717C42.817 66.3913 43.7416 66.3826 44.6684 66.3847C44.6792 66.4346 44.6879 66.4823 44.6988 66.5322L44.664 66.5539L44.6814 66.5907C44.6749 67.5208 44.664 68.4509 44.664 69.381C44.664 78.0035 44.664 86.626 44.664 95.2506C44.664 95.5542 44.6575 95.8577 44.6553 96.1612H41.3572V96.1634Z" fill="#330920"/>
<path d="M24.5231 3.41928C24.5666 3.38892 24.608 3.35857 24.6515 3.32605C25.2976 3.69029 25.972 3.48215 26.6486 3.4583C27.93 3.41277 29.2135 3.4518 30.4949 3.44963C30.7951 3.44963 31.1062 3.50166 31.3847 3.33039C31.4043 3.3564 31.4239 3.38459 31.4434 3.41061C31.4108 3.48432 31.3499 3.55803 31.3499 3.63175C31.3434 5.67192 31.3434 7.71209 31.3412 9.75226C31.3412 10.0515 31.5174 10.11 31.7806 10.1078C32.7335 10.1035 33.6886 10.1143 34.6415 10.1187C34.6458 10.6238 34.6545 11.129 34.6545 11.632C34.6545 14.2575 34.6567 16.8831 34.6589 19.5086C34.6589 19.7471 34.6088 20.0745 34.9721 20.0333C35.9642 19.9162 36.9584 20.1265 37.9461 19.9639L37.9352 19.9553C37.9504 20.6794 37.9787 21.4057 37.9809 22.1299C37.9874 24.5581 37.9809 26.9864 37.9831 29.4125C37.9831 29.6509 37.9243 29.9328 38.3094 29.9285C39.0773 29.9176 39.8431 29.9523 40.6067 30.0434C41.0614 30.0976 41.3421 29.8743 41.3312 29.3799C41.2877 27.5457 41.4704 25.7072 41.2355 23.8773C41.1876 23.4958 41.2964 23.318 41.7206 23.3353C42.4712 23.3657 43.2261 23.331 43.9766 23.3722C44.4987 23.4004 44.6858 23.2551 44.6793 22.6979C44.6489 19.8252 44.6728 16.9525 44.6489 14.0798C44.6445 13.5724 44.8338 13.3838 45.3167 13.3946C46.0281 13.4098 46.7417 13.3751 47.4509 13.4185C47.8686 13.4445 47.9904 13.2927 47.9883 12.9112C47.9752 9.73708 47.9687 6.56083 47.9622 3.38676L47.9709 3.34339C48.1384 3.41711 48.3081 3.4518 48.4952 3.44963C50.5576 3.43879 52.62 3.43662 54.6824 3.43229L54.6758 3.42578C54.6693 3.44529 54.6541 3.46264 54.6541 3.48215C54.6584 7.7251 54.6562 11.968 54.6736 16.2132C54.6736 16.5861 54.5758 16.7031 54.1972 16.6901C53.4467 16.6641 52.6918 16.7205 51.9434 16.6771C51.4321 16.6468 51.3168 16.8527 51.3233 17.3059C51.3429 19.3265 51.3408 21.3472 51.3473 23.3657L51.319 23.383L51.2907 23.3635C50.4357 23.3483 49.5786 23.3765 48.7301 23.3028C48.0883 23.2464 47.9491 23.4719 47.9535 24.0725C47.9817 27.9989 47.9752 31.9274 47.9774 35.8538C47.9774 36.6127 47.9752 36.6083 47.2399 36.565C46.9571 36.5476 46.6721 36.5801 46.3871 36.5801C41.8294 36.5758 37.2717 36.5693 32.7139 36.5693C31.3477 36.5693 31.3542 36.578 31.3542 35.2338C31.3586 30.2949 31.3542 25.3538 31.3673 20.4149C31.3673 20.0702 31.2389 19.9878 30.9474 19.99C30.1947 19.9986 29.442 19.9813 28.6892 20.0203C28.1954 20.0463 27.9974 19.9054 28.0083 19.3786C28.0388 17.9823 28.0192 16.5861 28.017 15.1876C28.0126 13.6505 28.0018 12.1111 28.0018 10.574C28.0018 10.2769 27.9583 10.0254 27.5993 10.0319C26.6051 10.0493 25.6109 10.084 24.6188 10.1122L24.6275 10.1208C24.6471 8.00911 24.6689 5.89523 24.6906 3.78352C24.6906 3.62958 24.6275 3.51467 24.5209 3.41277L24.5231 3.41928Z" fill="#EEA978"/>
<path d="M24.6188 10.1166C25.613 10.0884 26.605 10.0537 27.5993 10.0364C27.9604 10.0299 28.0039 10.2835 28.0017 10.5784C28.0017 12.1156 28.0126 13.6549 28.017 15.1921C28.0213 16.5883 28.0387 17.9867 28.0083 19.383C27.9974 19.9098 28.1954 20.0508 28.6892 20.0247C29.4398 19.9857 30.1947 20.0031 30.9474 19.9944C31.2389 19.9901 31.3694 20.0746 31.3673 20.4193C31.352 25.3582 31.3564 30.2993 31.3542 35.2382C31.3542 36.5846 31.3477 36.5737 32.7139 36.5737C37.2716 36.5737 41.8293 36.5824 46.3871 36.5846C46.672 36.5846 46.957 36.5521 47.2399 36.5694C47.9752 36.6128 47.9774 36.6171 47.9774 35.8583C47.973 31.9319 47.9817 28.0033 47.9534 24.0769C47.9491 23.4763 48.0883 23.2509 48.7301 23.3072C49.5785 23.3809 50.4379 23.3528 51.2907 23.3679C51.4103 23.7387 51.3407 24.1224 51.3407 24.4975C51.3407 29.25 51.3277 34.0024 51.3211 38.7548C51.3211 39.8736 51.3211 39.8736 52.4045 39.8888C52.9941 39.8974 53.5837 39.9256 54.1732 39.8996C54.5909 39.8801 54.6823 40.0492 54.678 40.4308C54.6606 42.0091 54.6714 43.5853 54.6714 45.1637C54.6714 48.7237 54.6584 52.2837 54.6845 55.8437C54.6888 56.3857 54.5322 56.544 54.0014 56.5201C53.1333 56.4811 52.2631 56.5136 51.3929 56.5136C51.3429 56.4833 51.2929 56.4508 51.245 56.4204L51.2537 56.4291C51.4038 51.449 51.332 46.4689 51.3233 41.4866C51.3233 41.246 51.2602 41.0075 51.2537 40.7647C51.2254 39.8866 51.2276 39.8996 50.3226 39.9018C44.2986 39.9039 38.2745 39.9018 32.2505 39.9018C31.3412 39.9018 31.3455 39.8996 31.3477 40.8124C31.3499 42.5338 31.3542 44.2553 31.3433 45.9767C31.3412 46.3496 31.4238 46.5036 31.8546 46.5014C35.9641 46.4884 40.0737 46.5036 44.1833 46.4971C44.5683 46.4971 44.6749 46.638 44.664 46.9979C44.6423 47.7459 44.6249 48.4982 44.664 49.244C44.6923 49.7557 44.453 49.8576 44.0179 49.8576C40.7416 49.8489 37.4652 49.8511 34.1867 49.8511C33.3731 49.8511 32.5594 49.8554 31.7436 49.8641C31.3977 49.8684 31.2607 49.7926 31.2976 49.372C31.3694 48.5481 31.3238 47.7134 31.3499 46.883C31.3586 46.6272 31.2411 46.5708 31.0301 46.5643C30.8886 46.5599 30.7451 46.5383 30.6037 46.5383C27.7146 46.5469 24.8233 46.5469 21.9342 46.5751C21.4969 46.5795 21.299 46.5014 21.3142 46.0223C21.3403 45.0726 21.3164 44.1209 21.3142 43.1712C23.3896 43.1821 25.4629 43.1864 27.5362 43.2059C27.906 43.2103 28.0322 43.0932 28.017 42.7116C27.9843 41.9029 27.9996 41.092 27.9996 40.2833C28.0017 34.8393 27.9996 29.3952 28.0191 23.9512C28.0191 23.4677 27.8821 23.3224 27.3969 23.3311C25.9741 23.3593 24.5492 23.3246 23.1264 23.3463C22.5499 23.3549 21.7993 23.0536 21.4404 23.4482C21.0901 23.8319 21.3338 24.5712 21.3338 25.1523C21.3251 31.1622 21.3272 37.1721 21.3251 43.1821C20.5005 43.3403 19.6651 43.284 18.8341 43.31C18.5491 43.3187 18.2837 43.271 18.0204 43.1734L18.0313 43.1821C18.0248 37.8833 18.0139 32.5845 18.0248 27.2857C18.0248 26.7848 17.8964 26.6309 17.383 26.6374C15.3707 26.6656 13.3583 26.6461 11.3459 26.6461C11.3568 26.5529 11.3677 26.4575 11.3786 26.3642L11.409 26.3317L11.3786 26.2949C11.3764 25.4471 11.3829 24.5994 11.3655 23.7517C11.3568 23.3528 11.5004 23.2595 11.9051 23.2639C14.7659 23.3029 17.6288 23.3072 20.4918 23.3224L20.5332 23.3463L20.5723 23.3181C21.1858 23.3853 21.4099 23.1468 21.3425 22.5115C21.275 21.872 21.3533 21.2172 21.3185 20.5733C21.2903 20.079 21.4643 19.9489 21.9494 19.9792C22.7174 20.0269 23.4919 19.9879 24.2642 19.9966C24.497 19.9987 24.6645 19.9662 24.6623 19.6822C24.6449 16.4908 24.7428 13.3015 24.621 10.1101L24.6188 10.1166Z" fill="#330920"/>
<path d="M18.0226 43.1734C18.0313 44.1231 18.0291 45.0727 18.0531 46.0223C18.0618 46.4039 17.9508 46.5578 17.5331 46.5513C15.6034 46.5231 13.6738 46.5361 11.7441 46.5036C11.3677 46.4971 11.3568 46.6727 11.359 46.9394C11.3655 50.0528 11.3764 53.1662 11.3721 56.2795C11.3721 57.4655 11.3285 58.6492 11.3068 59.8352C10.3931 59.8308 9.47718 59.8113 8.56346 59.8287C8.14358 59.8374 8.00653 59.7008 8.00653 59.2693C8.01523 48.5676 8.01523 37.8681 8 27.1665C8 26.7155 8.15011 26.6331 8.55476 26.6418C9.48806 26.6635 10.4235 26.6418 11.359 26.6375C11.3525 26.8998 11.3416 27.1621 11.3416 27.4266C11.3416 32.3048 11.3416 37.183 11.3416 42.0612C11.3416 42.4428 11.2676 42.8504 11.5178 43.1756C11.7876 43.5225 12.1161 43.1756 12.4185 43.1778C14.2894 43.1995 16.1604 43.1865 18.0313 43.1843L18.0204 43.1756L18.0226 43.1734Z" fill="#330920"/>
<path d="M18.0313 43.1823C16.1604 43.1823 14.2894 43.1953 12.4185 43.1758C12.1161 43.1715 11.7876 43.5206 11.5178 43.1737C11.2655 42.8506 11.3416 42.4408 11.3416 42.0593C11.3416 37.1811 11.3416 32.3029 11.3416 27.4247C11.3416 27.1623 11.3525 26.8978 11.359 26.6355L11.3459 26.6463C13.3583 26.6463 15.3707 26.6659 17.383 26.6377C17.8964 26.6312 18.027 26.7851 18.0248 27.2859C18.0117 32.5847 18.0248 37.8835 18.0313 43.1823Z" fill="#EEA978"/>
<path d="M47.9621 3.38684C47.9708 6.56092 47.9751 9.73716 47.9882 12.9112C47.9882 13.2928 47.8685 13.4446 47.4508 13.4186C46.7416 13.3752 46.0281 13.4099 45.3167 13.3947C44.8315 13.3839 44.6444 13.5725 44.6488 14.0798C44.6705 16.9526 44.6488 19.8253 44.6792 22.698C44.6858 23.2552 44.4987 23.4026 43.9765 23.3723C43.226 23.3311 42.4711 23.3658 41.7205 23.3354C41.2963 23.3181 41.1875 23.4958 41.2354 23.8774C41.4703 25.7073 41.2876 27.5458 41.3311 29.38C41.342 29.8722 41.0613 30.0977 40.6067 30.0435C39.8409 29.9524 39.0773 29.9177 38.3093 29.9285C37.9242 29.9329 37.983 29.651 37.983 29.4125C37.983 26.9843 37.9852 24.556 37.9808 22.1299C37.9808 21.4058 37.9503 20.6795 37.9351 19.9554C38.9293 19.9705 39.9235 19.9727 40.9156 20.0052C41.3289 20.0182 41.3181 19.7581 41.3181 19.4914C41.3181 17.4902 41.3137 15.4913 41.3115 13.4901C41.3572 13.4489 41.4029 13.4077 41.4486 13.3644C42.4036 13.373 43.3609 13.3665 44.3137 13.3991C44.7924 13.4142 44.6488 13.0869 44.6488 12.8614C44.6553 10.0277 44.6488 7.194 44.6488 4.36031C44.6488 4.21939 44.6575 4.07629 44.6444 3.93537C44.6074 3.54945 44.7445 3.40419 45.1622 3.41503C46.0933 3.43671 47.0266 3.39985 47.9599 3.38684H47.9621Z" fill="#330920"/>
<path d="M51.3494 23.3679C51.3429 21.3472 51.345 19.3265 51.3255 17.3081C51.3211 16.8549 51.4364 16.649 51.9455 16.6793C52.6939 16.7227 53.4488 16.6641 54.1993 16.6923C54.5779 16.7053 54.6779 16.5883 54.6758 16.2153C54.6584 11.9724 54.6584 7.72946 54.6562 3.48435C54.6562 3.46484 54.6692 3.44749 54.6779 3.42798C55.5721 3.43015 56.4662 3.43665 57.3604 3.43448C57.7998 3.43448 58.0021 3.58408 58 4.0719C57.9804 8.07852 57.976 12.0851 57.9869 16.0896C57.9869 16.5384 57.8999 16.7335 57.3973 16.6988C56.6881 16.6511 55.9746 16.7097 55.2632 16.6772C54.8172 16.6555 54.6562 16.7856 54.6627 17.2517C54.6866 19.0729 54.654 20.8941 54.6823 22.7153C54.691 23.2183 54.5452 23.3874 54.034 23.3679C53.1399 23.3332 52.2457 23.3657 51.3494 23.3679Z" fill="#330920"/>
<path d="M37.946 19.9641C36.9583 20.1267 35.9619 19.9164 34.9721 20.0335C34.6088 20.0768 34.6588 19.7494 34.6588 19.5088C34.6588 16.8832 34.6588 14.2577 34.6545 11.6321C34.6545 11.127 34.6458 10.6218 34.6414 10.1188L34.6305 10.1296C34.6719 10.0971 34.7154 10.0624 34.7567 10.0299C35.7379 10.0299 36.7212 10.0321 37.7024 10.0342L37.7393 10.0733L37.7872 10.0473C37.9699 10.1058 38.0091 10.2207 38.0091 10.4137C38.0135 13.527 38.0287 16.6382 38.0352 19.7516C38.0352 19.8231 37.9743 19.8947 37.9417 19.9641H37.946Z" fill="#330920"/>
<path d="M47.9578 63.1133C47.9622 61.1208 47.9839 59.1262 47.9578 57.1337C47.9513 56.57 48.0601 56.3554 48.6997 56.4161C49.5438 56.4985 50.4009 56.4312 51.2537 56.4291L51.245 56.4204C51.2864 56.5245 51.3255 56.6264 51.3668 56.7304C51.3603 58.582 51.356 60.4314 51.3494 62.2829C51.3386 62.2872 51.3277 62.2937 51.319 62.3003L51.3516 62.3566C51.3516 62.4932 51.3516 62.6298 51.3516 62.7664L51.319 62.8032L51.3451 62.8444C51.2864 63.1523 51.0514 63.1111 50.8295 63.1133C49.9027 63.1241 48.9738 63.1371 48.047 63.1501C48.0144 63.1328 47.9817 63.1155 47.9469 63.1024L47.9578 63.1133Z" fill="#330920"/>
<path d="M31.3869 3.33052C31.1084 3.5018 30.7973 3.44977 30.4971 3.44977C29.2157 3.45194 27.9321 3.41291 26.6508 3.45844C25.9742 3.48229 25.2998 3.69042 24.6536 3.32619C24.6536 3.22862 24.6536 3.12889 24.6558 3.03133L24.6928 3.00965L24.658 2.98796C24.6645 2.17927 24.6689 1.37057 24.6754 0.564045C24.6776 0.282194 24.6928 0.0718897 25.1018 0.0783939C26.9684 0.106579 28.8372 0.117419 30.7059 0.0935705C31.1998 0.0870663 31.389 0.193302 31.3673 0.724483C31.3303 1.59172 31.3782 2.46112 31.389 3.32835L31.3869 3.33052Z" fill="#330920"/>
<path d="M34.6436 10.1187C33.6907 10.1144 32.7357 10.1035 31.7828 10.1079C31.5196 10.1079 31.3434 10.0515 31.3434 9.7523C31.3434 7.71213 31.3455 5.67196 31.3521 3.63179C31.3521 3.55807 31.413 3.48436 31.4456 3.41064C32.4899 3.42148 33.5341 3.43233 34.5784 3.44533L34.5914 3.48002L34.6219 3.46268C34.7437 3.97868 34.6501 4.49902 34.6567 5.01503C34.6762 6.64326 34.6784 8.27149 34.6871 9.89756C34.6675 9.97561 34.6501 10.0515 34.6306 10.1295L34.6414 10.1187H34.6436Z" fill="#330920"/>
<path d="M54.6823 3.43241C52.6199 3.43674 50.5575 3.43891 48.4952 3.44975C48.3059 3.44975 48.1384 3.41723 47.9709 3.34352C47.9709 2.47628 47.9926 1.60905 47.9578 0.743982C47.9382 0.245322 48.0818 0.0848838 48.6083 0.0957242C50.5119 0.128246 52.4176 0.104397 54.3212 0.102229L54.3604 0.130414L54.4017 0.106565C54.7258 0.154263 54.6671 0.403592 54.6693 0.616065C54.6758 1.55485 54.678 2.49363 54.6823 3.43241Z" fill="#330920"/>
<path d="M24.5231 3.41956C24.6297 3.51929 24.6928 3.6342 24.6928 3.7903C24.6688 5.90201 24.6493 8.0159 24.6297 10.1276C23.7203 10.1146 22.8088 10.0756 21.8994 10.0951C21.4861 10.1038 21.3229 10.004 21.3272 9.56825C21.3425 7.69285 21.3403 5.81746 21.3185 3.94206C21.3142 3.53663 21.4643 3.41956 21.8494 3.42606C22.7413 3.44124 23.6333 3.42606 24.5231 3.42172V3.41956Z" fill="#330920"/>
<path d="M44.6554 66.4002C44.6554 65.4722 44.675 64.5464 44.6467 63.6207C44.6336 63.174 44.8338 63.057 45.2254 63.0678C46.1369 63.0895 47.0463 63.0982 47.9578 63.1133L47.947 63.1025C47.96 63.2131 47.9731 63.3215 47.9861 63.432C47.9905 64.2386 47.9839 65.0451 48.0057 65.8495C48.0187 66.2787 47.8882 66.4674 47.414 66.4392C46.7678 66.4002 46.1195 66.4327 45.4712 66.4349L45.4451 66.4132L45.419 66.4349C45.1645 66.424 44.9077 66.4132 44.6532 66.4023L44.6554 66.4002Z" fill="#330920"/>
<path d="M41.4508 13.3665C41.4051 13.4077 41.3594 13.4511 41.3137 13.4922C41.2506 13.3296 41.2963 13.2906 41.4508 13.3665Z" fill="#EEA978"/>
<path d="M47.9861 63.43C47.973 63.3194 47.96 63.211 47.9469 63.1005C47.9817 63.1135 48.0144 63.1308 48.047 63.1482C48.0644 63.2501 48.0818 63.352 47.9883 63.43H47.9861Z" fill="#EEA978"/>
<path d="M51.3668 56.7285C51.3255 56.6244 51.2863 56.5225 51.245 56.4185C51.295 56.4488 51.3451 56.4813 51.3929 56.5117C51.3842 56.5832 51.3755 56.657 51.3668 56.7285Z" fill="#EEA978"/>
<path d="M34.6327 10.1296C34.6501 10.0515 34.6697 9.97563 34.6871 9.89758C34.7567 9.9171 34.7763 9.96263 34.7589 10.0298C34.7175 10.0624 34.674 10.097 34.6327 10.1296Z" fill="#EEA978"/>
<path d="M14.6897 66.7902C14.6919 66.8487 14.6962 66.9051 14.6984 66.9636C14.6244 66.9094 14.5983 66.853 14.6897 66.7902Z" fill="#EEA978"/>
<path d="M24.6536 2.99011L24.6901 3.01152L24.6536 3.03293V2.99011Z" fill="#EEA978"/>
<path d="M34.6235 3.46021L34.5934 3.47733L34.5783 3.44522L34.6084 3.43237L34.6235 3.46021Z" fill="#EEA978"/>
<path d="M11.3786 26.2971L11.409 26.3318L11.3786 26.3665L11.3438 26.3296L11.3786 26.2971Z" fill="#EEA978"/>
<path d="M51.3516 62.3545L51.319 62.2981C51.319 62.2981 51.3408 62.2873 51.3495 62.2808C51.3777 62.3046 51.3777 62.3306 51.3495 62.3545H51.3516Z" fill="#EEA978"/>
<path d="M51.3451 62.8422L51.319 62.801L51.3516 62.7664L51.3756 62.8054L51.3451 62.8422Z" fill="#EEA978"/>
<path d="M20.5701 23.3227L20.531 23.3508L20.4897 23.327C20.5136 23.2663 20.5397 23.262 20.568 23.3248L20.5701 23.3227Z" fill="#EEA978"/>
<path d="M37.7916 10.0474L37.7415 10.0734L37.7046 10.0343L37.7524 10.0105L37.7916 10.0474Z" fill="#EEA978"/>
<path d="M14.52 66.4716L14.5614 66.4456L14.5875 66.4868L14.5461 66.5063L14.52 66.4716Z" fill="#EEA978"/>
<path d="M45.4211 66.4349L45.4472 66.4132L45.4733 66.4349C45.4559 66.4999 45.4385 66.4956 45.4189 66.4349H45.4211Z" fill="#EEA978"/>
<path d="M44.6792 66.593L44.6618 66.5561C44.6618 66.5561 44.6966 66.5323 44.6966 66.5344C44.7097 66.5388 44.7205 66.5409 44.7336 66.5453C44.7162 66.5626 44.6988 66.5778 44.6814 66.5951L44.6792 66.593Z" fill="#EEA978"/>
<path d="M21.3272 43.182C21.3272 37.1721 21.3272 31.1621 21.3359 25.1522C21.3359 24.5712 21.0944 23.8319 21.4425 23.4481C21.8015 23.0535 22.552 23.3549 23.1286 23.3462C24.5513 23.3245 25.9763 23.3592 27.3991 23.331C27.8842 23.3224 28.0213 23.4676 28.0213 23.9511C28.0017 29.3952 28.0039 34.8392 28.0017 40.2833C28.0017 41.092 27.9865 41.9028 28.0191 42.7115C28.0343 43.0931 27.9082 43.2102 27.5383 43.2059C25.4651 43.1864 23.3896 43.182 21.3163 43.1712L21.3272 43.182Z" fill="#EEA978"/>
</g>
<defs>
<clipPath id="clip0_4_10">
<rect width="66" height="92" fill="white"/>
</clipPath>
</defs>
</svg>
